<svg width="10" height="11" viewBox="0 0 10 11" fill="none" xmlns="http://www.w3.org/2000/svg">
<g clip-path="url(#clip0_1_5884)">
<path d="M9.98691 3.69747C9.98691 3.77932 9.9386 3.86861 9.84198 3.96533L7.81849 5.94078L8.29788 8.73096C8.3016 8.757 8.30345 8.7942 8.30345 8.84256C8.30345 8.92069 8.28394 8.98672 8.24492 9.04067C8.2059 9.09461 8.14923 9.12158 8.07491 9.12158C8.0043 9.12158 7.92997 9.09926 7.85193 9.05462L5.34905 7.73765L2.84616 9.05462C2.7644 9.09926 2.69008 9.12158 2.62319 9.12158C2.54514 9.12158 2.48661 9.09461 2.44759 9.04067C2.40857 8.98672 2.38906 8.92069 2.38906 8.84256C2.38906 8.82024 2.39278 8.78304 2.40021 8.73096L2.87961 5.94078L0.850541 3.96533C0.757635 3.86489 0.711182 3.7756 0.711182 3.69747C0.711182 3.55983 0.815236 3.47426 1.02335 3.44078L3.82167 3.03341L5.0759 0.49435C5.14651 0.34182 5.23756 0.265555 5.34905 0.265555C5.46053 0.265555 5.55158 0.34182 5.62219 0.49435L6.87642 3.03341L9.67475 3.44078C9.88286 3.47426 9.98691 3.55983 9.98691 3.69747Z" fill="white"/>
</g>
<defs>
<clipPath id="clip0_1_5884">
<rect width="9.29" height="10" fill="white" transform="matrix(1 0 0 -1 0.704041 10.0869)"/>
</clipPath>
</defs>
</svg>
