<svg width="15" height="13" viewBox="0 0 15 13" fill="none" xmlns="http://www.w3.org/2000/svg">
<path d="M4.12667 9.81194L6.35101 6.50015L4.12667 3.18836V9.81194ZM5.09055 11.2454H9.5145L7.29017 7.93361L5.09055 11.2454ZM8.25405 6.50015L10.4537 9.81194V3.18836L8.25405 6.50015ZM9.5145 1.7549H5.09055L7.29017 5.06669L9.5145 1.7549ZM2.54492 1.35947C2.5614 1.02994 2.67673 0.749835 2.89093 0.519163C3.1216 0.304968 3.4017 0.189632 3.73123 0.173156H10.8491C11.1786 0.189632 11.4587 0.304968 11.6894 0.519163C11.9036 0.749835 12.0189 1.02994 12.0354 1.35947V11.6408C12.0189 11.9704 11.9036 12.2505 11.6894 12.4811C11.4587 12.6953 11.1786 12.8107 10.8491 12.8271H3.73123C3.4017 12.8107 3.1216 12.6953 2.89093 12.4811C2.67673 12.2505 2.5614 11.9704 2.54492 11.6408V1.35947Z" fill="#FFC51E"/>
</svg>
