<svg width="25" height="25" viewBox="0 0 25 25" fill="none" xmlns="http://www.w3.org/2000/svg">
<g clip-path="url(#clip0_1_7397)">
<path d="M18.8447 17.9102C18.3276 17.0281 17.628 16.3284 16.7459 15.8113C15.8637 15.2638 14.8751 14.99 13.7801 14.99H10.8599C9.76488 14.99 8.77629 15.2638 7.89416 15.8113C7.01203 16.3284 6.31241 17.0281 5.7953 17.9102C6.61659 18.8227 7.57477 19.5376 8.66982 20.0547C9.7953 20.5718 11.012 20.8303 12.32 20.8303C13.628 20.8303 14.8447 20.5718 15.9702 20.0547C17.0653 19.5376 18.0234 18.8227 18.8447 17.9102ZM0.639404 12.0699C0.669823 9.9406 1.18693 7.99383 2.19074 6.22958C3.22496 4.46532 4.65461 3.03566 6.47971 1.9406C8.33522 0.906382 10.282 0.389271 12.32 0.389271C14.358 0.389271 16.3048 0.906382 18.1603 1.9406C19.9854 3.03566 21.4151 4.46532 22.4493 6.22958C23.4531 7.99383 23.9702 9.9406 24.0006 12.0699C23.9702 14.1992 23.4531 16.1459 22.4493 17.9102C21.4151 19.6744 19.9854 21.1041 18.1603 22.1992C16.3048 23.2334 14.358 23.7505 12.32 23.7505C10.282 23.7505 8.33522 23.2334 6.47971 22.1992C4.65461 21.1041 3.22496 19.6744 2.19074 17.9102C1.18693 16.1459 0.669823 14.1992 0.639404 12.0699ZM12.32 12.7999C13.5672 12.7695 14.5101 12.222 15.1489 11.1573C15.7573 10.0623 15.7573 8.96722 15.1489 7.87216C14.5101 6.80752 13.5672 6.25999 12.32 6.22958C11.0729 6.25999 10.1299 6.80752 9.49112 7.87216C8.88275 8.96722 8.88275 10.0623 9.49112 11.1573C10.1299 12.222 11.0729 12.7695 12.32 12.7999Z" fill="#004E96"/>
</g>
<defs>
<clipPath id="clip0_1_7397">
<rect width="24" height="24" fill="white" transform="matrix(1 0 0 -1 0.320007 24.0698)"/>
</clipPath>
</defs>
</svg>
