<svg width="13" height="14" viewBox="0 0 13 14" fill="none" xmlns="http://www.w3.org/2000/svg">
<g clip-path="url(#clip0_1_3089)">
<path d="M9.45502 5.87466C9.45502 5.20279 9.29095 4.57779 8.96283 3.99966C8.61908 3.42154 8.15814 2.9606 7.58002 2.61685C6.98627 2.28873 6.36127 2.12466 5.70502 2.12466C5.04877 2.12466 4.42377 2.28873 3.83002 2.61685C3.25189 2.9606 2.79095 3.42154 2.4472 3.99966C2.11908 4.57779 1.95502 5.20279 1.95502 5.87466C1.95502 6.54654 2.11908 7.17154 2.4472 7.74966C2.79095 8.32779 3.25189 8.78873 3.83002 9.13248C4.42377 9.4606 5.04877 9.62466 5.70502 9.62466C6.36127 9.62466 6.98627 9.4606 7.58002 9.13248C8.15814 8.78873 8.61908 8.32779 8.96283 7.74966C9.29095 7.17154 9.45502 6.54654 9.45502 5.87466ZM8.72845 9.69498C7.8847 10.3825 6.87689 10.734 5.70502 10.7497C4.33002 10.7184 3.18158 10.2419 2.2597 9.31998C1.33783 8.3981 0.861267 7.24966 0.830017 5.87466C0.861267 4.49966 1.33783 3.35123 2.2597 2.42935C3.18158 1.50748 4.33002 1.03091 5.70502 0.999664C7.08002 1.03091 8.22845 1.50748 9.15033 2.42935C10.0722 3.35123 10.5488 4.49966 10.58 5.87466C10.5644 7.04654 10.2128 8.05435 9.52533 8.8981L12.4316 11.8044L12.83 12.2028L12.0331 12.9997L11.6347 12.6012L8.72845 9.69498Z" fill="white"/>
</g>
<defs>
<clipPath id="clip0_1_3089">
<rect width="12" height="13" fill="white" transform="matrix(1 0 0 -1 0.830017 13.57)"/>
</clipPath>
</defs>
</svg>
