<svg width="12" height="15" viewBox="0 0 12 15" fill="none" xmlns="http://www.w3.org/2000/svg">
<g clip-path="url(#clip0_44_8118)">
<path d="M1.42356 13.0858L5.42356 7.4572L1.42356 1.8572V13.0572V13.0858ZM1.99499 13.8572H9.99499L5.99499 8.2572L1.99499 13.8572ZM6.56642 7.4572L10.5664 13.0858V1.8572L6.56642 7.4572ZM9.99499 1.0572H1.99499L5.99499 6.68577L9.99499 1.0572ZM0.509277 1.51434C0.528325 1.13339 0.661658 0.80958 0.909277 0.542913C1.17594 0.295294 1.49975 0.16196 1.88071 0.142913H10.1093C10.4902 0.16196 10.814 0.295294 11.0807 0.542913C11.3283 0.80958 11.4617 1.13339 11.4807 1.51434V13.4001C11.4617 13.781 11.3283 14.1048 11.0807 14.3715C10.814 14.6191 10.4902 14.7524 10.1093 14.7715H1.88071C1.49975 14.7524 1.17594 14.6191 0.909277 14.3715C0.661658 14.1048 0.528325 13.781 0.509277 13.4001V1.51434Z" fill="#DDDDDD"/>
</g>
<defs>
<clipPath id="clip0_44_8118">
<rect width="11.25" height="15" fill="white" transform="matrix(1 0 0 -1 0.370117 15)"/>
</clipPath>
</defs>
</svg>
