<svg width="25" height="25" viewBox="0 0 25 25" fill="none" xmlns="http://www.w3.org/2000/svg">
<g clip-path="url(#clip0_1_7389)">
<path d="M6.98473 18.1839L11.0912 12.0699L6.98473 5.95581V18.1839ZM8.76419 20.8303H16.9315L12.825 14.7163L8.76419 20.8303ZM14.6045 12.0699L18.6653 18.1839V5.95581L14.6045 12.0699ZM16.9315 3.30942H8.76419L12.825 9.42349L16.9315 3.30942ZM4.06458 2.57939C4.09499 1.97102 4.30792 1.45391 4.70336 1.02805C5.12921 0.632616 5.64632 0.419689 6.25469 0.389271H19.3954C20.0037 0.419689 20.5208 0.632616 20.9467 1.02805C21.3421 1.45391 21.5551 1.97102 21.5855 2.57939V21.5604C21.5551 22.1687 21.3421 22.6858 20.9467 23.1117C20.5208 23.5071 20.0037 23.7201 19.3954 23.7505H6.25469C5.64632 23.7201 5.12921 23.5071 4.70336 23.1117C4.30792 22.6858 4.09499 22.1687 4.06458 21.5604V2.57939Z" fill="#004E96"/>
</g>
<defs>
<clipPath id="clip0_1_7389">
<rect width="24" height="24" fill="white" transform="matrix(1 0 0 -1 0.825012 24.0698)"/>
</clipPath>
</defs>
</svg>
