<svg width="15" height="15" viewBox="0 0 15 15" fill="none" xmlns="http://www.w3.org/2000/svg">
<g clip-path="url(#clip0_1_5785)">
<path d="M1.82797 8.28716L2.47662 8.93581L7.66581 14.125L12.855 8.93581L13.5036 8.28716C14.2063 7.56644 14.5667 6.70158 14.5847 5.69257C14.5667 4.64752 14.2063 3.78266 13.5036 3.09797C12.819 2.39527 11.9541 2.03491 10.909 2.01689C9.90004 2.03491 9.03518 2.39527 8.31445 3.09797L7.66581 3.74662L7.01716 3.09797C6.29644 2.39527 5.43157 2.03491 4.42256 2.01689C3.37752 2.03491 2.51265 2.39527 1.82797 3.09797C1.12527 3.78266 0.764905 4.64752 0.746887 5.69257C0.764905 6.70158 1.12527 7.56644 1.82797 8.28716Z" fill="#636363"/>
</g>
<defs>
<clipPath id="clip0_1_5785">
<rect width="14" height="14" fill="white" transform="matrix(1 0 0 -1 0.665802 14.9897)"/>
</clipPath>
</defs>
</svg>
