<svg width="13" height="14" viewBox="0 0 13 14" fill="none" xmlns="http://www.w3.org/2000/svg">
<g clip-path="url(#clip0_1_7382)">
<path d="M9.45502 5.875C9.45502 5.20312 9.29095 4.57812 8.96283 4C8.61908 3.42188 8.15814 2.96094 7.58002 2.61719C6.98627 2.28906 6.36127 2.125 5.70502 2.125C5.04877 2.125 4.42377 2.28906 3.83002 2.61719C3.25189 2.96094 2.79095 3.42188 2.4472 4C2.11908 4.57812 1.95502 5.20312 1.95502 5.875C1.95502 6.54688 2.11908 7.17188 2.4472 7.75C2.79095 8.32812 3.25189 8.78906 3.83002 9.13281C4.42377 9.46094 5.04877 9.625 5.70502 9.625C6.36127 9.625 6.98627 9.46094 7.58002 9.13281C8.15814 8.78906 8.61908 8.32812 8.96283 7.75C9.29095 7.17188 9.45502 6.54688 9.45502 5.875ZM8.72845 9.69531C7.8847 10.3828 6.87689 10.7344 5.70502 10.75C4.33002 10.7188 3.18158 10.2422 2.2597 9.32031C1.33783 8.39844 0.861267 7.25 0.830017 5.875C0.861267 4.5 1.33783 3.35156 2.2597 2.42969C3.18158 1.50781 4.33002 1.03125 5.70502 1C7.08002 1.03125 8.22845 1.50781 9.15033 2.42969C10.0722 3.35156 10.5488 4.5 10.58 5.875C10.5644 7.04688 10.2128 8.05469 9.52533 8.89844L12.4316 11.8047L12.83 12.2031L12.0331 13L11.6347 12.6016L8.72845 9.69531Z" fill="#9C9C9C"/>
</g>
<defs>
<clipPath id="clip0_1_7382">
<rect width="12" height="13" fill="white" transform="matrix(1 0 0 -1 0.830017 13.5703)"/>
</clipPath>
</defs>
</svg>
