<svg width="9" height="13" viewBox="0 0 9 13" fill="none" xmlns="http://www.w3.org/2000/svg">
<g clip-path="url(#clip0_1_7433)">
<path d="M1.47504 8.94873L3.40863 6.06982L1.47504 3.19092V8.94873ZM2.31293 10.1948H6.15863L4.22504 7.31592L2.31293 10.1948ZM5.06293 6.06982L6.97504 8.94873V3.19092L5.06293 6.06982ZM6.15863 1.94482H2.31293L4.22504 4.82373L6.15863 1.94482ZM0.100037 1.60107C0.11436 1.31462 0.21462 1.07113 0.400818 0.870605C0.601339 0.684407 0.844828 0.584147 1.13129 0.569824H7.31879C7.60525 0.584147 7.84873 0.684407 8.04926 0.870605C8.23545 1.07113 8.33571 1.31462 8.35004 1.60107V10.5386C8.33571 10.825 8.23545 11.0685 8.04926 11.269C7.84873 11.4552 7.60525 11.5555 7.31879 11.5698H1.13129C0.844828 11.5555 0.601339 11.4552 0.400818 11.269C0.21462 11.0685 0.11436 10.825 0.100037 10.5386V1.60107Z" fill="#FFC51E"/>
</g>
<defs>
<clipPath id="clip0_1_7433">
<rect width="8.25" height="12" fill="white" transform="matrix(1 0 0 -1 0.100037 12.0698)"/>
</clipPath>
</defs>
</svg>
