<svg width="25" height="25" viewBox="0 0 25 25" fill="none" xmlns="http://www.w3.org/2000/svg">
<g clip-path="url(#clip0_1_3097)">
<path d="M7.00681 18.2064L11.0977 12.1155L7.00681 6.02456V18.2064ZM8.77954 20.8427H16.9159L12.825 14.7518L8.77954 20.8427ZM14.5977 12.1155L18.6432 18.2064V6.02456L14.5977 12.1155ZM16.9159 3.3882H8.77954L12.825 9.4791L16.9159 3.3882ZM4.09772 2.66092C4.12802 2.05486 4.34014 1.53971 4.73408 1.11547C5.15832 0.721527 5.67347 0.509407 6.27954 0.479103H19.3704C19.9765 0.509407 20.4917 0.721527 20.9159 1.11547C21.3098 1.53971 21.522 2.05486 21.5523 2.66092V21.57C21.522 22.1761 21.3098 22.6912 20.9159 23.1155C20.4917 23.5094 19.9765 23.7215 19.3704 23.7518H6.27954C5.67347 23.7215 5.15832 23.5094 4.73408 23.1155C4.34014 22.6912 4.12802 22.1761 4.09772 21.57V2.66092Z" fill="#004E96"/>
</g>
<defs>
<clipPath id="clip0_1_3097">
<rect width="24" height="24" fill="white" transform="matrix(1 0 0 -1 0.825012 24.07)"/>
</clipPath>
</defs>
</svg>
