<svg width="29" height="30" viewBox="0 0 29 30" fill="none" xmlns="http://www.w3.org/2000/svg">
<path d="M27.3869 19.8585C26.6509 19.1236 25.7218 18.6122 24.7072 18.3835C23.6926 18.1548 22.6339 18.2183 21.6539 18.5665L10.6939 7.60652C10.9933 6.76543 11.0835 5.86408 10.9567 4.98032C10.8298 4.09656 10.4898 3.25697 9.96582 2.53406C9.44188 1.81115 8.74983 1.22666 7.94944 0.831074C7.14905 0.435485 6.26439 0.24069 5.37187 0.263517C4.71887 0.278517 4.57687 0.793517 5.03887 1.25352L6.44787 2.66352C7.78787 4.00452 7.78787 5.36952 6.44787 6.70952C5.10787 8.04952 3.74287 8.04952 2.40187 6.70952L0.991866 5.29952C0.530866 4.83852 0.0168656 4.98152 0.0018656 5.63452C-0.0175795 6.38024 0.115155 7.1221 0.391965 7.81481C0.668776 8.50753 1.08386 9.13656 1.61187 9.66352C2.34788 10.3984 3.27698 10.9097 4.29158 11.1383C5.30618 11.367 6.3648 11.3036 7.34487 10.9555L18.3059 21.9155C18.0062 22.7567 17.9158 23.6581 18.0426 24.542C18.1693 25.4259 18.5094 26.2657 19.0333 26.9887C19.5573 27.7117 20.2494 28.2963 21.0499 28.692C21.8504 29.0876 22.7352 29.2824 23.6279 29.2595C24.2799 29.2435 24.4229 28.7295 23.9609 28.2685L22.5509 26.8585C21.2109 25.5185 21.2109 24.1535 22.5509 22.8125C23.8919 21.4725 25.2569 21.4725 26.5979 22.8125L28.0079 24.2225C28.4699 24.6845 28.9819 24.5415 28.9979 23.8885C29.0174 23.1426 28.8846 22.4004 28.6076 21.7075C28.3306 21.0146 27.9152 20.3855 27.3869 19.8585Z" fill="#FFC51E"/>
<path d="M23.1988 7.69677C23.3158 7.57877 23.4368 7.49477 23.5868 7.42477L25.6098 6.48177C25.9468 6.32477 26.0998 6.18377 26.2898 5.86277L27.9438 3.03777C28.0308 2.88777 28.0178 2.78177 27.8948 2.65977L26.6018 1.36577C26.4798 1.24377 26.3738 1.23077 26.2248 1.31777L23.3978 2.97177C23.0768 3.15977 22.9368 3.31377 22.7798 3.65077L21.8368 5.67377C21.7668 5.82377 21.6818 5.94377 21.5658 6.06177L15.9998 11.6278L17.6338 13.2618L23.1988 7.69677ZM7.36085 17.0538C7.21375 17.0618 7.07499 17.1246 6.97185 17.2298L1.26485 22.9358C-0.501155 24.7018 -0.340155 26.1758 1.26485 27.7808L1.47985 27.9968C3.08585 29.6028 4.55985 29.7628 6.32585 27.9968L12.0328 22.2898C12.1378 22.186 12.2005 22.0471 12.2088 21.8998C12.2578 21.3978 12.4088 20.6288 12.9998 19.9598L9.30185 16.2618C8.63185 16.8528 7.86285 17.0038 7.36085 17.0538ZM1.50685 25.6538C1.44308 25.5902 1.39248 25.5147 1.35796 25.4316C1.32344 25.3484 1.30567 25.2593 1.30567 25.1693C1.30567 25.0792 1.32344 24.9901 1.35796 24.907C1.39248 24.8238 1.44308 24.7483 1.50685 24.6848L7.67184 18.5208C7.73539 18.457 7.8109 18.4064 7.89404 18.3719C7.97718 18.3374 8.06632 18.3196 8.15635 18.3196C8.24637 18.3196 8.33551 18.3374 8.41865 18.3719C8.50179 18.4064 8.5773 18.457 8.64085 18.5208C8.76945 18.6494 8.84169 18.8239 8.84169 19.0058C8.84169 19.1877 8.76945 19.3621 8.64085 19.4908L2.47585 25.6538C2.4123 25.7175 2.33679 25.7681 2.25365 25.8027C2.17051 25.8372 2.08137 25.8549 1.99135 25.8549C1.90132 25.8549 1.81218 25.8372 1.72904 25.8027C1.6459 25.7681 1.57039 25.7175 1.50685 25.6538ZM10.2568 20.4208C10.392 20.4217 10.5239 20.4624 10.636 20.5379C10.7481 20.6134 10.8355 20.7202 10.8871 20.8451C10.9388 20.97 10.9525 21.1074 10.9265 21.24C10.9004 21.3726 10.8359 21.4947 10.7408 21.5908L4.57585 27.7538C4.44537 27.8721 4.27436 27.9357 4.09826 27.9314C3.92215 27.9272 3.75445 27.8553 3.62989 27.7307C3.50533 27.6062 3.43345 27.4385 3.42917 27.2624C3.42488 27.0862 3.4885 26.9152 3.60685 26.7848L9.77085 20.6208C9.90585 20.4868 10.0808 20.4208 10.2558 20.4208H10.2568Z" fill="#FFC51E"/>
</svg>
