<svg width="29" height="32" viewBox="0 0 29 32" fill="none" xmlns="http://www.w3.org/2000/svg">
<path d="M28.547 8.03543L28.4 8.11643L27.992 8.32643L27.43 8.61143L14.614 15.1904L9.063 12.3394L21.935 5.79443L22.5 5.50943L23.062 5.22143L28.547 8.03543ZM21.297 4.31743L20.736 4.60743L20.171 4.89743L7.315 11.5654L1.569 8.55243L1.011 8.26243L0.596 8.04543L0.453 7.96543L14.365 0.69043L21.297 4.31743ZM29 9.29943V23.7964L15.406 31.0494V16.5734L27.98 9.85343L28.49 9.57843L28.799 9.41343L29 9.29943ZM13.594 16.5694V31.0494L0 23.7944V9.29943L0.181 9.40343H0.184L0.511 9.57843L1.022 9.85043L13.594 16.5694Z" fill="#FFC51E"/>
</svg>
