<svg width="15" height="20" viewBox="0 0 15 20" fill="none" xmlns="http://www.w3.org/2000/svg">
<g clip-path="url(#clip0_44_8082)">
<path d="M12.8421 4.40382C13.014 3.11495 12.8421 2.2557 12.1529 1.45782C11.4053 0.59857 10.0839 0.168945 8.41822 0.168945H3.534C3.24676 0.168945 2.90245 0.47582 2.84414 0.782695L0.833496 14.4079C0.833496 14.6534 1.00596 14.9603 1.29319 14.9603H4.28093L4.10847 16.3106C4.05077 16.5561 4.22324 16.7402 4.45278 16.7402H6.98143C7.26928 16.7402 7.5559 16.5561 7.61359 16.2492V16.0651L8.13037 12.8736V12.7508C8.18806 12.4439 8.4753 12.1984 8.76253 12.1984H9.10807C11.5778 12.1984 13.4743 11.1551 14.0488 8.08632C14.336 6.79745 14.2218 5.75407 13.532 5.01757C13.3595 4.77207 13.0717 4.58795 12.8421 4.40382Z" fill="#009CDE"/>
<path d="M12.8421 4.40382C13.014 3.11495 12.8421 2.2557 12.1529 1.45782C11.4053 0.59857 10.0839 0.168945 8.41822 0.168945H3.534C3.24676 0.168945 2.90245 0.47582 2.84414 0.782695L0.833496 14.4079C0.833496 14.6534 1.00596 14.9603 1.29319 14.9603H4.28093L5.08556 9.86619L5.02786 10.0503C5.08556 9.68207 5.37279 9.43657 5.71711 9.43657H7.15328C9.96917 9.43657 12.1529 8.20907 12.8421 4.77207C12.7851 4.58795 12.8421 4.52657 12.8421 4.40382Z" fill="#012169"/>
<path d="M5.8331 4.40382C5.88957 4.2197 6.00495 4.03557 6.17742 3.91282C6.29158 3.91282 6.34927 3.85145 6.46404 3.85145H10.2564C10.7167 3.85145 11.1752 3.91282 11.5213 3.9742C11.6355 3.9742 11.7509 3.9742 11.8657 4.03557C11.9804 4.09695 12.0952 4.09695 12.1529 4.15832C12.21 4.15832 12.267 4.15832 12.3254 4.15832C12.4972 4.2197 12.6697 4.34245 12.8421 4.40382C13.014 3.11495 12.8421 2.2557 12.1529 1.39645C11.463 0.537195 10.1422 0.168945 8.4753 0.168945H3.534C3.24676 0.168945 2.90245 0.414445 2.84414 0.782695L0.833496 14.4079C0.833496 14.6534 1.00596 14.9603 1.29319 14.9603H4.28093L5.08556 9.86619L5.8331 4.40382Z" fill="#003087"/>
</g>
<defs>
<clipPath id="clip0_44_8082">
<rect width="14.73" height="19.64" fill="white" transform="translate(0 0.0107422)"/>
</clipPath>
</defs>
</svg>
