<svg width="48" height="16" viewBox="0 0 48 16" fill="none" xmlns="http://www.w3.org/2000/svg">
<g clip-path="url(#clip0_44_8089)">
<path d="M6.4509 2.06348H2.80928C2.57584 2.06348 2.3424 2.25023 2.29572 2.48366L0.848404 11.8212C0.801717 12.0079 0.941779 12.148 1.12853 12.148H2.85597C3.0894 12.148 3.32284 11.9612 3.36953 11.7278L3.74303 9.20666C3.78972 8.97323 3.97647 8.78648 4.25659 8.78648H5.42378C7.80484 8.78648 9.20547 7.61929 9.57897 5.3316C9.71903 4.35116 9.57897 3.55748 9.11209 2.99723C8.59853 2.39029 7.66478 2.06348 6.4509 2.06348ZM6.87109 5.47166C6.68434 6.77891 5.65722 6.77891 4.72347 6.77891H4.16322L4.53672 4.35116C4.53672 4.2111 4.67678 4.11773 4.81684 4.11773H5.05028C5.7039 4.11773 6.31084 4.11773 6.63765 4.49123C6.87109 4.67798 6.96447 5.00479 6.87109 5.47166Z" fill="#003087"/>
<path d="M17.2824 5.42484H15.555C15.4149 5.42484 15.2748 5.51822 15.2748 5.65828L15.1815 6.12516L15.0414 5.93841C14.6679 5.37816 13.8275 5.19141 12.9872 5.19141C11.073 5.19141 9.4389 6.63872 9.11209 8.69297C8.92534 9.72009 9.15878 10.7005 9.76571 11.3542C10.2793 11.9611 11.073 12.2412 11.96 12.2412C13.5007 12.2412 14.3878 11.2608 14.3878 11.2608L14.2944 11.7277C14.2477 11.9144 14.3878 12.1012 14.5745 12.1012H16.1619C16.3953 12.1012 16.6288 11.9144 16.6755 11.681L17.6092 5.70497C17.6559 5.61159 17.4692 5.42484 17.2824 5.42484ZM14.9013 8.78634C14.7146 9.76678 13.9676 10.4671 12.9405 10.4671C12.4269 10.4671 12.0534 10.327 11.7733 10.0002C11.4932 9.67341 11.3998 9.25322 11.4932 8.78634C11.6332 7.80591 12.4736 7.10559 13.454 7.10559C13.9676 7.10559 14.3411 7.29234 14.6212 7.57247C14.8547 7.89928 14.948 8.31947 14.9013 8.78634Z" fill="#003087"/>
<path d="M26.5735 5.4248H24.846C24.6593 5.4248 24.5192 5.51818 24.4258 5.65824L21.9981 9.20649L20.971 5.7983C20.9243 5.56487 20.6908 5.4248 20.5041 5.4248H18.7766C18.5899 5.4248 18.4031 5.61155 18.4965 5.84499L20.4107 11.4942L18.5899 14.0153C18.4498 14.2021 18.5899 14.4822 18.8233 14.4822H20.5508C20.7375 14.4822 20.8776 14.3888 20.971 14.2487L26.8069 5.84499C26.947 5.70493 26.8069 5.4248 26.5735 5.4248Z" fill="#003087"/>
<path d="M32.3625 2.06348H28.7209C28.4875 2.06348 28.254 2.25023 28.2073 2.48366L26.76 11.7745C26.7133 11.9612 26.8534 12.1013 27.0402 12.1013H28.9077C29.0944 12.1013 29.2345 11.9612 29.2345 11.8212L29.6547 9.15998C29.7013 8.92654 29.8881 8.73979 30.1682 8.73979H31.3354C33.7165 8.73979 35.1171 7.5726 35.4906 5.28491C35.6306 4.30448 35.4906 3.51079 35.0237 2.95054C34.4635 2.39029 33.5764 2.06348 32.3625 2.06348ZM32.7827 5.47166C32.596 6.77891 31.5688 6.77891 30.6351 6.77891H30.0748L30.4483 4.35116C30.4483 4.2111 30.5884 4.11773 30.7285 4.11773H30.9619C31.6155 4.11773 32.2225 4.11773 32.5493 4.49123C32.7827 4.67798 32.8294 5.00479 32.7827 5.47166Z" fill="#009CDE"/>
<path d="M43.194 5.42484H41.4666C41.3265 5.42484 41.1865 5.51822 41.1865 5.65828L41.0931 6.12516L40.953 5.93841C40.5795 5.37816 39.7391 5.19141 38.8988 5.19141C36.9846 5.19141 35.3505 6.63872 35.0237 8.69297C34.837 9.72009 35.0704 10.7005 35.6773 11.3542C36.1909 11.9611 36.9846 12.2412 37.8716 12.2412C39.4123 12.2412 40.2994 11.2608 40.2994 11.2608L40.206 11.7277C40.1593 11.9144 40.2994 12.1012 40.4861 12.1012H42.0735C42.307 12.1012 42.5404 11.9144 42.5871 11.681L43.5208 5.70497C43.5208 5.61159 43.3808 5.42484 43.194 5.42484ZM40.7663 8.78634C40.5795 9.76678 39.8325 10.4671 38.8054 10.4671C38.2918 10.4671 37.9183 10.327 37.6382 10.0002C37.3581 9.67341 37.2647 9.25322 37.3581 8.78634C37.4981 7.80591 38.3385 7.10559 39.319 7.10559C39.8325 7.10559 40.206 7.29234 40.4861 7.57247C40.7663 7.89928 40.8596 8.31947 40.7663 8.78634Z" fill="#009CDE"/>
<path d="M45.2482 2.29691L43.7542 11.7745C43.7075 11.9612 43.8475 12.1013 44.0343 12.1013H45.5283C45.7617 12.1013 45.9952 11.9145 46.0419 11.6811L47.5359 2.39029C47.5825 2.20354 47.4425 2.06348 47.2557 2.06348H45.575C45.3882 2.06348 45.2949 2.15685 45.2482 2.29691Z" fill="#009CDE"/>
</g>
<defs>
<clipPath id="clip0_44_8089">
<rect width="47.1544" height="14.94" fill="white" transform="translate(0.737793 0.755859)"/>
</clipPath>
</defs>
</svg>
