<svg width="71" height="19" viewBox="0 0 71 19" fill="none" xmlns="http://www.w3.org/2000/svg">
<path d="M4.75638 14.6603H4.52694V12.3222H3.70752V12.1064H5.5758V12.3222H4.75638V14.6603Z" fill="#FFC907"/>
<path d="M10.9676 12.1064V12.3222H9.49262V13.2427H10.8365V13.4585H9.49262V14.4445H11.0331V14.6603H9.26318V12.1064H10.9676Z" fill="#FFC907"/>
<path d="M15.8512 14.4804C16.2937 14.4804 16.5067 14.3329 16.5723 14.0051L16.8072 14.0242C16.7307 14.4121 16.4685 14.6934 15.8512 14.6934C15.0973 14.6934 14.7695 14.1827 14.7695 13.3824C14.7695 12.5821 15.0973 12.0713 15.8512 12.0713C16.4712 12.0713 16.7334 12.3526 16.8072 12.7405L16.5723 12.7596C16.5067 12.4318 16.2937 12.2843 15.8512 12.2843C15.1874 12.2843 15.0126 12.7924 15.0126 13.3824C15.0126 13.9723 15.1874 14.4804 15.8512 14.4804Z" fill="#FFC907"/>
<path d="M22.4884 12.1064V14.6603H22.259V13.4585H20.8496V14.6603H20.6201V12.1064H20.8496V13.2427H22.259V12.1064H22.4884Z" fill="#FFC907"/>
<path d="M26.9106 12.975L26.6101 12.5107L26.6238 13.3847V14.663H26.3916V12.1064H26.5992L27.7382 13.7945L28.0386 14.2588L28.025 13.3847V12.1064H28.2571V14.6603H28.0496L26.9106 12.975Z" fill="#FFC907"/>
<path d="M32.0757 13.3853C32.0757 12.585 32.4035 12.0742 33.1573 12.0742C33.9112 12.0742 34.239 12.585 34.239 13.3853C34.239 14.1856 33.9112 14.6964 33.1573 14.6964C32.4035 14.6936 32.0757 14.1829 32.0757 13.3853ZM32.3188 13.3853C32.3188 13.9753 32.4936 14.4833 33.1573 14.4833C33.821 14.4833 33.9959 13.9753 33.9959 13.3853C33.9959 12.7953 33.821 12.2873 33.1573 12.2873C32.4936 12.2873 32.3188 12.7953 32.3188 13.3853Z" fill="#FFC907"/>
<path d="M38.2895 14.4445H39.6333V14.6603H38.0601V12.1064H38.2895V14.4445Z" fill="#FFC907"/>
<path d="M43.2061 13.3853C43.2061 12.585 43.5338 12.0742 44.2877 12.0742C45.0416 12.0742 45.3693 12.585 45.3693 13.3853C45.3693 14.1856 45.0416 14.6964 44.2877 14.6964C43.5338 14.6964 43.2061 14.1829 43.2061 13.3853ZM43.4464 13.3853C43.4464 13.9753 43.6212 14.4833 44.285 14.4833C44.9487 14.4833 45.1235 13.9753 45.1235 13.3853C45.1235 12.7953 44.9487 12.2873 44.285 12.2873C43.6212 12.2873 43.4464 12.7953 43.4464 13.3853Z" fill="#FFC907"/>
<path d="M50.9194 14.2894V13.5601H50.3622V13.3443H51.1488V14.4341C50.8211 14.6417 50.5589 14.6991 50.1847 14.6964C49.4308 14.6909 49.103 14.1856 49.103 13.3853C49.103 12.585 49.4308 12.0742 50.1847 12.0742C50.8047 12.0742 51.0669 12.3556 51.1407 12.7434L50.9057 12.7625C50.8402 12.4348 50.6271 12.2873 50.1847 12.2873C49.5209 12.2873 49.3461 12.7953 49.3461 13.3853C49.3461 13.9753 49.5209 14.4833 50.1847 14.4833C50.4769 14.4833 50.7555 14.4041 50.9194 14.2894Z" fill="#FFC907"/>
<path d="M55.0688 12.1064L55.5986 12.9067L55.8991 13.3684L56.1996 12.9067L56.7294 12.1064H56.9944L56.0111 13.565V14.663H55.7816V13.565L54.7983 12.1064H55.0688Z" fill="#FFC907"/>
<path d="M31.1498 4.00516C30.7811 3.57906 30.3003 3.36328 29.7076 3.36328H25.0643C24.4825 3.36328 24.0045 3.57633 23.6385 4.00516C23.2697 4.43126 23.084 4.94203 23.084 5.53201V10.3857H24.7228V5.53748C24.7228 5.18239 24.8375 5.00485 25.0643 5.00485H29.7076C29.9453 5.00485 30.0627 5.18239 30.0627 5.53748V6.52078H25.168L26.8069 8.15962H30.0654V10.3857H31.7043V5.53201C31.7043 4.94203 31.5186 4.43399 31.1498 4.00516Z" fill="#FFC907"/>
<path d="M40.5759 3.36621V4.16378C40.5622 4.14466 40.5486 4.12281 40.5349 4.10369C40.1716 3.61204 39.6745 3.36621 39.0463 3.36621H32.2314V10.3859H33.8703V5.00505H38.9507C39.2511 5.00505 39.4014 5.24542 39.4014 5.72887C39.4014 6.21233 39.2511 6.45269 38.9507 6.45269H34.7307L38.2405 10.3859H40.4803L38.4181 8.09154H39.0463C39.6745 8.09154 40.1716 7.84571 40.5349 7.35406C40.8709 6.90884 41.0402 6.36529 41.0402 5.72887C41.0402 5.47212 41.0102 5.23176 40.9555 5.00505H43.7443V10.3859H45.3831V5.00505H47.4208L49.0596 3.36621H40.5759Z" fill="#FFC907"/>
<path d="M37.3065 10.3857H34.5532V7.27734L37.3065 10.3857Z" fill="#F05123"/>
<path d="M20.8686 3.36621L18.0143 7.42234L15.1736 3.36621H13.4529V7.03995C13.3873 6.92523 13.3081 6.81597 13.2207 6.71218C12.8383 6.27789 12.3548 6.05937 11.7703 6.05937H7.35091C7.12147 6.05937 7.00948 5.88729 7.00948 5.54041C7.00948 5.19352 7.1242 5.00778 7.35091 5.00778H11.5982L13.2371 3.36894H7.36456C6.78278 3.36894 6.30478 3.58199 5.93058 4.01082C5.55638 4.43965 5.37064 4.94769 5.37064 5.54041C5.37064 6.13312 5.55364 6.63297 5.91692 7.04268C6.29932 7.4797 6.78278 7.69821 7.36456 7.69821H11.7758C12.0025 7.69821 12.1172 7.87302 12.1172 8.22264C12.1172 8.57226 12.0025 8.7498 11.7758 8.7498H5.24773L3.60889 10.3886H11.7758C12.3576 10.3886 12.841 10.1701 13.2234 9.73584C13.3108 9.63205 13.39 9.52279 13.4556 9.40807V10.3886H15.0944V6.11127L18.017 10.2767L20.9396 6.11127V10.3859H22.5785V3.36621H20.8686Z" fill="#FFC907"/>
<path d="M16.0723 3.36621L18.0744 6.13039L20.0492 3.36621H16.0723Z" fill="#F05123"/>
<path d="M57.1416 7.42507C57.1416 9.39988 56.0736 10.3859 53.9377 10.3859H48.5186V6.32705C48.5186 4.35225 49.5865 3.36621 51.7198 3.36621H57.1389V7.42507H57.1416ZM55.5164 6.46635C55.3416 6.46635 55.1941 6.57561 55.134 6.7313H52.9762V6.10581H54.0141L54.361 5.61962C54.3938 5.62781 54.4293 5.63327 54.4648 5.63327C54.6915 5.63327 54.8745 5.45027 54.8745 5.22356C54.8745 4.99686 54.6915 4.81385 54.4648 4.81385C54.2381 4.81385 54.0551 4.99686 54.0551 5.22356C54.0551 5.30824 54.0797 5.38472 54.1234 5.45027L53.8639 5.81355H52.9762V5.10065C53.1292 5.04056 53.2411 4.89306 53.2411 4.71825C53.2411 4.49155 53.0581 4.30854 52.8314 4.30854C52.6047 4.30854 52.4217 4.49155 52.4217 4.71825C52.4217 4.89306 52.531 5.04056 52.6867 5.10065V5.81355H51.799L51.5395 5.45027C51.5832 5.38472 51.6078 5.30824 51.6078 5.22356C51.6078 4.99686 51.4248 4.81385 51.1981 4.81385C50.9714 4.81385 50.7883 4.99686 50.7883 5.22356C50.7883 5.45027 50.9714 5.63327 51.1981 5.63327C51.2336 5.63327 51.2691 5.62781 51.3019 5.61962L51.6487 6.10581H52.6867V6.7313H50.5289C50.4688 6.57834 50.3213 6.46635 50.1465 6.46635C49.9198 6.46635 49.7368 6.64936 49.7368 6.87606C49.7368 7.10277 49.9198 7.28577 50.1465 7.28577C50.3213 7.28577 50.4688 7.17652 50.5289 7.02083H52.6867V7.64632H51.6487L51.3019 8.13251C51.2691 8.12431 51.2336 8.11885 51.1981 8.11885C50.9714 8.11885 50.7883 8.30185 50.7883 8.52856C50.7883 8.75527 50.9714 8.93827 51.1981 8.93827C51.4248 8.93827 51.6078 8.75527 51.6078 8.52856C51.6078 8.44389 51.5832 8.36741 51.5395 8.30185L51.799 7.93858H52.6867V8.65147C52.5337 8.71156 52.4217 8.85906 52.4217 9.03387C52.4217 9.26058 52.6047 9.44358 52.8314 9.44358C53.0581 9.44358 53.2411 9.26058 53.2411 9.03387C53.2411 8.85906 53.1319 8.71156 52.9762 8.65147V7.93858H53.8639L54.1234 8.30185C54.0797 8.36741 54.0551 8.44389 54.0551 8.52856C54.0551 8.75527 54.2381 8.93827 54.4648 8.93827C54.6915 8.93827 54.8745 8.75527 54.8745 8.52856C54.8745 8.30185 54.6915 8.11885 54.4648 8.11885C54.4293 8.11885 54.3938 8.12431 54.361 8.13251L54.0141 7.64632H52.9762V7.02083H55.134C55.1941 7.17378 55.3416 7.28577 55.5164 7.28577C55.7431 7.28577 55.9261 7.10277 55.9261 6.87606C55.9261 6.64936 55.7431 6.46635 55.5164 6.46635Z" fill="#F05123"/>
<path d="M57.8029 3.43164C58.0241 3.43164 58.2044 3.61191 58.2044 3.83316C58.2044 4.0544 58.0241 4.23467 57.8029 4.23467C57.5816 4.23467 57.4014 4.0544 57.4014 3.83316C57.4014 3.61191 57.5816 3.43164 57.8029 3.43164ZM58.1334 3.83316C58.1334 3.64742 57.9859 3.49719 57.8029 3.49719C57.6199 3.49719 57.4724 3.64742 57.4724 3.83316C57.4724 4.01889 57.6199 4.16912 57.8029 4.16912C57.9859 4.16912 58.1334 4.01889 58.1334 3.83316ZM57.6417 3.60099H57.8247C57.9285 3.60099 57.9859 3.64469 57.9859 3.73756C57.9859 3.82223 57.9313 3.86047 57.8602 3.86866L57.9941 4.07079H57.9231L57.792 3.87413H57.7155V4.07079H57.6445V3.60099H57.6417ZM57.792 3.80857C57.8575 3.80857 57.9149 3.80584 57.9149 3.73483C57.9149 3.672 57.863 3.66654 57.8138 3.66654H57.7155V3.80857H57.792Z" fill="#FFC907"/>
<path d="M64.6722 5.64648C62.6537 5.64648 61.0176 7.28259 61.0176 9.3011C61.0176 11.3196 62.6537 12.9557 64.6722 12.9557C66.6907 12.9557 68.3268 11.3196 68.3268 9.3011C68.3268 7.28259 66.6907 5.64648 64.6722 5.64648ZM64.6722 12.2674C63.0361 12.2674 61.7032 10.9345 61.7032 9.29837C61.7032 7.66226 63.0361 6.32933 64.6722 6.32933C66.3083 6.32933 67.6412 7.66226 67.6412 9.29837C67.6412 10.9345 66.3083 12.2674 64.6722 12.2674ZM65.2431 10.4428H65.0136V9.18638C65.0136 8.99791 64.8607 8.84496 64.6722 8.84496H64.2161C64.0276 8.84496 63.8746 8.99791 63.8746 9.18638C63.8746 9.37485 64.0276 9.52781 64.2161 9.52781H64.3308V10.4401H64.1013C63.9129 10.4401 63.7599 10.5931 63.7599 10.7815C63.7599 10.97 63.9129 11.1229 64.1013 11.1229H65.2431C65.4315 11.1229 65.5845 10.97 65.5845 10.7815C65.5845 10.5931 65.4315 10.4401 65.2431 10.4401V10.4428ZM64.6722 8.38608C64.9235 8.38608 65.1283 8.18123 65.1283 7.92994C65.1283 7.67865 64.9235 7.47379 64.6722 7.47379C64.4209 7.47379 64.2161 7.67865 64.2161 7.92994C64.2161 8.18123 64.4209 8.38608 64.6722 8.38608Z" fill="#004E96"/>
</svg>
