<svg width="30" height="31" viewBox="0 0 30 31" fill="none" xmlns="http://www.w3.org/2000/svg">
<path fill-rule="evenodd" clip-rule="evenodd" d="M14.99 0.83252C23.261 0.83252 29.99 7.56152 29.99 15.8325C29.99 24.1035 23.261 30.8325 14.99 30.8325C6.71899 30.8325 -0.0100098 24.1035 -0.0100098 15.8325C-0.0100098 7.56152 6.71899 0.83252 14.99 0.83252ZM14.99 2.33252C7.54599 2.33252 1.48999 8.38852 1.48999 15.8325C1.48999 23.2765 7.54599 29.3325 14.99 29.3325C22.434 29.3325 28.49 23.2765 28.49 15.8325C28.49 8.38852 22.434 2.33252 14.99 2.33252ZM13.094 10.3775C13.306 10.3775 13.518 10.4555 13.68 10.6085L19.08 15.7335L13.69 21.0455C13.372 21.3605 12.846 21.3685 12.516 21.0655C12.186 20.7605 12.178 20.2595 12.496 19.9455L16.748 15.7555L12.508 11.7315C12.182 11.4235 12.181 10.9215 12.505 10.6115C12.667 10.4555 12.881 10.3775 13.094 10.3775Z" fill="#333333"/>
</svg>
