<svg width="30" height="31" viewBox="0 0 30 31" fill="none" xmlns="http://www.w3.org/2000/svg">
<path fill-rule="evenodd" clip-rule="evenodd" d="M14.99 30.8325C6.71899 30.8325 -0.0100098 24.1035 -0.0100098 15.8325C-0.0100098 7.56152 6.71899 0.83252 14.99 0.83252C23.261 0.83252 29.99 7.56152 29.99 15.8325C29.99 24.1035 23.261 30.8325 14.99 30.8325ZM14.99 29.3325C22.434 29.3325 28.49 23.2765 28.49 15.8325C28.49 8.38852 22.434 2.33252 14.99 2.33252C7.54599 2.33252 1.48999 8.38852 1.48999 15.8325C1.48999 23.2765 7.54599 29.3325 14.99 29.3325ZM16.886 21.2875C16.674 21.2875 16.462 21.2095 16.3 21.0565L10.9 15.9315L16.29 10.6195C16.608 10.3045 17.134 10.2965 17.464 10.5995C17.794 10.9045 17.802 11.4055 17.484 11.7195L13.232 15.9095L17.472 19.9335C17.798 20.2415 17.799 20.7435 17.475 21.0535C17.313 21.2095 17.099 21.2875 16.886 21.2875Z" fill="#333333"/>
</svg>
